<svg width="95" height="95" viewBox="0 0 95 95" fill="none" xmlns="http://www.w3.org/2000/svg">
<path d="M44 95C42.8954 95 42 94.1046 42 93V2C42 0.895433 42.8954 0 44 0H51.2976C52.4022 0 53.2976 0.895431 53.2976 2V83.7553C53.2976 84.8599 54.193 85.7553 55.2976 85.7553H93C94.1046 85.7553 95 86.6507 95 87.7553V93C95 94.1046 94.1046 95 93 95H44Z" fill="#131313"/>
<path d="M47.2324 10.1064C49.8655 10.1064 52 12.241 52 14.874C52 17.5071 49.8655 19.6416 47.2324 19.6416H19.2979C14.8796 19.6416 11.2979 23.2233 11.2979 27.6416V40.1426C11.298 44.5607 14.8797 48.1426 19.2979 48.1426H38V57.4814H19.2979C14.8797 57.4814 11.298 61.0633 11.2979 65.4814V77.8691C11.2981 82.2872 14.8797 85.8691 19.2979 85.8691H52.5039C55.006 85.8691 57.0342 87.8973 57.0342 90.3994C57.034 92.9014 55.0059 94.9297 52.5039 94.9297H8C3.58175 94.9297 5.29459e-05 91.3479 0 86.9297V18.1064C0 13.6882 3.58172 10.1064 8 10.1064H47.2324Z" fill="#131313"/>
<path d="M47.3301 48.1426C49.9089 48.1426 51.9997 50.2327 52 52.8115C52 55.3906 49.9091 57.4814 47.3301 57.4814H42V48.1426H47.3301Z" fill="#131313"/>
<path d="M32.2295 10.1064H31.9326V10.0986C32.0311 10.1016 32.1303 10.1064 32.2295 10.1064Z" fill="#131313"/>
<path d="M42 10.1064H32.2295C37.6256 10.1062 42 5.71402 42 0.296875C42 0.197531 41.9951 0.0986332 41.9922 0H42V10.1064Z" fill="#131313"/>
<path d="M64 85.6387C63.8926 85.6421 63.7849 85.6445 63.6768 85.6445H64V85.6387Z" fill="#131313"/>
<path d="M53 85.6445H63.6768C57.7803 85.6445 53 80.4671 53 74.0801C53 73.9628 53.0046 73.846 53.0078 73.7295H53V85.6445Z" fill="#131313"/>
<path d="M95 57.2207C95 63.9935 93.3526 74.2514 90.0576 79.2578C86.793 84.2638 82.2771 88.1459 76.5107 90.9033C70.7747 93.6339 64.1839 94.999 56.7393 94.999C48.4402 94.999 41.1476 93.2861 34.8623 89.8594C28.6077 86.4327 23.7265 81.56 20.2178 75.2422C17.8543 70.9491 16.2947 66.1122 15.5371 60.7314H26.6309C27.2815 64.4851 28.4232 67.8364 30.0576 70.7852C32.773 75.6841 36.4494 79.3918 41.0869 81.9082C45.7246 84.4247 50.9422 85.6836 56.7393 85.6836C62.1091 85.6836 66.8384 84.6796 70.9268 82.6719C75.0457 80.6373 78.2498 77.7725 80.5381 74.0781C82.761 70.5107 83.915 62.3254 84.0068 57.2207H59.3018V48.3867H95V57.2207Z" fill="#131313"/>
<path d="M40.3301 23.9023C36.0315 26.4099 32.5918 30.0171 30.0117 34.7246C27.3268 39.6236 25.9844 45.6339 25.9844 52.7549C25.9844 54.3889 26.0572 55.9645 26.2002 57.4814H15.1816C15.0608 55.9469 15 54.3712 15 52.7549C15 46.2499 15.9915 40.4004 17.9746 35.207C19.6309 30.9134 21.8462 27.1457 24.6172 23.9023H40.3301Z" fill="#131313"/>
<path d="M56.0068 10.5107C60.9496 10.5107 65.5566 11.1668 69.8281 12.4785C74.13 13.7635 77.9593 15.597 81.3154 17.9795C84.702 20.3352 87.5245 23.1596 89.7822 26.4521C92.04 29.7181 93.5969 33.3462 94.4512 37.335H82.7344C81.7275 34.6312 80.4005 32.208 78.7529 30.0664C77.1359 27.8981 75.1981 26.0513 72.9404 24.5254C70.7131 22.9995 68.1803 21.8344 65.3428 21.0312C62.5054 20.2282 59.3934 19.8271 56.0068 19.8271C56.0046 19.8271 56.0023 19.8271 56 19.8271V10.5107C56.0023 10.5107 56.0046 10.5107 56.0068 10.5107Z" fill="#131313"/>
<path d="M53 19.9531C49.062 20.292 45.3961 21.3108 42 23.0039V19.5693H29.0176C32.1004 17.008 35.5884 14.9634 39.4854 13.4414C43.6426 11.8178 48.1477 10.8713 53 10.5967V19.9531Z" fill="#131313"/>
</svg>

